<svg width="38" height="38" viewBox="0 0 38 38" fill="none" xmlns="http://www.w3.org/2000/svg">
<path d="M9.92823 8.20607L23.7049 15.8597C24.5733 16.3422 24.7404 16.4502 24.856 16.5629C25.0581 16.7601 25.2038 17.0077 25.278 17.2802C25.3204 17.4359 25.3337 17.6344 25.3337 18.6279V31.3142L21.3068 33.5513C20.559 33.9668 20.185 34.1745 19.7943 34.2758C19.2734 34.4107 18.7266 34.4107 18.2057 34.2758C17.815 34.1745 17.441 33.9668 16.6932 33.5513L7.1932 28.2735C6.40343 27.8348 6.00855 27.6154 5.70538 27.3196C5.30114 26.9253 5.00972 26.43 4.86131 25.8851C4.75 25.4765 4.75 25.0247 4.75 24.1213V13.8778C4.75 12.9743 4.75 12.5226 4.86131 12.1139C5.00972 11.5691 5.30114 11.0738 5.70538 10.6794C6.00855 10.3837 6.40343 10.1643 7.1932 9.72554L9.92823 8.20607Z" fill="#000000"/>
<path d="M13.1885 6.3948L16.6932 4.44776C17.441 4.03229 17.815 3.82456 18.2057 3.72331C18.7266 3.58832 19.2734 3.58832 19.7943 3.72331C20.185 3.82456 20.559 4.03229 21.3068 4.44776L30.8068 9.72553C31.5966 10.1643 31.9914 10.3837 32.2946 10.6794C32.6989 11.0738 32.9903 11.5691 33.1387 12.1139C33.25 12.5226 33.25 12.9743 33.25 13.8778V24.1213C33.25 25.0247 33.25 25.4765 33.1387 25.8851C32.9903 26.43 32.6989 26.9253 32.2946 27.3196C31.9914 27.6154 31.5966 27.8348 30.8068 28.2735L28.5003 29.5549L28.5005 18.4717C28.5012 17.7236 28.5019 17.0668 28.3334 16.448C28.1108 15.6306 27.6736 14.8877 27.0673 14.2962C26.6082 13.8483 26.0337 13.5299 25.3794 13.1673L13.1885 6.3948Z" fill="#000000"/>
</svg>
