<svg width="195" height="46" viewBox="0 0 195 46" fill="none" xmlns="http://www.w3.org/2000/svg">
<mask id="mask0_130_9746" style="mask-type:alpha" maskUnits="userSpaceOnUse" x="0" y="1" width="44" height="43">
<ellipse cx="22" cy="22.1902" rx="22" ry="21.1902" fill="white"/>
</mask>
<g mask="url(#mask0_130_9746)">
<rect width="44" height="42.3804" transform="translate(0 1)" fill="#FF0000"/>
<path d="M25.1004 34.9255H29.6967V9.49731H23.0112C16.2878 9.49731 12.7551 12.8268 12.7551 17.7295C12.7551 21.6443 14.6924 23.9493 18.1491 26.3275L12.1473 34.9255H17.1235L23.8089 25.3031L21.4918 23.803C18.6809 21.9736 17.3134 20.5467 17.3134 17.4734C17.3134 14.7659 19.2886 12.9365 23.0492 12.9365H25.1004V34.9255Z" fill="white"/>
</g>
<mask id="mask1_130_9746" style="mask-type:alpha" maskUnits="userSpaceOnUse" x="48" y="1" width="44" height="44">
<ellipse cx="70" cy="23" rx="22" ry="22" fill="white"/>
</mask>
<g mask="url(#mask1_130_9746)">
<rect width="44" height="44" transform="translate(48 1)" fill="#FED42B"/>
<path d="M48 39.1086L58.5029 26.5724L55.9308 36.3895L63.9008 39.2769L75.7424 22.3967L73.148 32.0497L79.6045 35.7858L92 23.3801V13.1715L83.2089 21.9788L85.1599 10.893L77.0324 7.92688L65.3443 24.6037L66.5078 17.0353L60.1396 13.3624L48 27.8378V39.1086Z" fill="#212121"/>
</g>
<path d="M114.038 36.38C116.888 36.38 118.826 35.354 120.004 34.556V30.87C118.484 31.972 116.812 32.808 114.38 32.808C110.2 32.808 108.224 29.426 108.224 22.814C108.224 16.012 110.124 12.782 114.608 12.782C116.698 12.782 118.636 13.694 120.004 14.568V10.882C118.788 10.008 116.812 9.21 114.38 9.21C107.35 9.21 103.55 14.378 103.55 22.814C103.55 31.478 107.502 36.38 114.038 36.38ZM134.075 36H139.205L131.947 25.702L138.331 16.886H133.771L127.387 25.702V16.886H122.865V36H127.387V26.614L134.075 36ZM139.417 32.086V36C139.417 36 140.139 36.38 141.203 36.38C145.079 36.38 146.067 33.644 146.295 27.298L146.561 20.458H151.159V36H155.681V16.886H142.723L142.343 27.108C142.191 31.174 141.925 32.428 140.443 32.428C139.797 32.428 139.417 32.086 139.417 32.086ZM173.78 22.966C173.78 18.33 171.424 16.582 166.636 16.582C163.634 16.582 161.278 17.532 159.91 18.33V22.092C161.126 21.18 163.786 20.192 166.104 20.192C168.27 20.192 169.258 20.952 169.258 23.004V24.068H168.536C161.62 24.068 158.542 26.348 158.542 30.224C158.542 34.1 160.898 36.266 164.394 36.266C167.054 36.266 168.194 35.392 169.068 34.48H169.258C169.296 34.974 169.448 35.62 169.6 36H174.008C173.856 34.442 173.78 32.884 173.78 31.326V22.966ZM169.258 31.44C168.688 32.276 167.624 32.96 166.028 32.96C164.128 32.96 163.178 31.82 163.178 30.11C163.178 27.868 164.736 27.07 168.612 27.07H169.258V31.44ZM194.212 32.428H192.198V16.886H179.012V18.52C179.012 23.194 178.708 29.236 177.112 32.428H175.706V40.37H179.886V36H190.032V40.37H194.212V32.428ZM187.676 32.428H181.292C182.546 29.54 182.888 24.334 182.888 21.028V20.458H187.676V32.428Z" fill="#212121"/>
</svg>
