<svg width="30" height="28" viewBox="0 0 30 28" fill="none" xmlns="http://www.w3.org/2000/svg">
<path fill-rule="evenodd" clip-rule="evenodd" d="M7.73234 3.32175L8.86604 2.33955L6.90164 0.0721436L5.76794 1.05434L0.517803 5.60286C0.204114 5.87463 0.0170481 6.26422 0.00110808 6.67896C-0.0148319 7.09369 0.141779 7.49649 0.433683 7.79154L5.68382 13.0981L6.73879 14.1645L8.87143 12.0545L7.81646 10.9882L5.09416 8.23662H18.7459C23.0882 8.23662 26.8238 11.846 26.9943 16.2705L26.9943 16.2706C27.175 20.9453 23.3358 24.9469 18.7459 24.9469H5.99858H4.49858V27.9469H5.99858H18.7459C25.0658 27.9469 30.2374 22.5027 29.992 16.1548C29.7605 10.148 24.7283 5.23662 18.7459 5.23662H5.5221L7.73234 3.32175Z" fill="black"/>
</svg>
