<svg width="32" height="32" viewBox="0 0 32 32" fill="none" xmlns="http://www.w3.org/2000/svg">
<path d="M28.75 6V11C28.75 11.1989 28.671 11.3897 28.5303 11.5303C28.3897 11.671 28.1989 11.75 28 11.75C27.8011 11.75 27.6103 11.671 27.4697 11.5303C27.329 11.3897 27.25 11.1989 27.25 11V6.75H23C22.8011 6.75 22.6103 6.67098 22.4697 6.53033C22.329 6.38968 22.25 6.19891 22.25 6C22.25 5.80109 22.329 5.61032 22.4697 5.46967C22.6103 5.32902 22.8011 5.25 23 5.25H28C28.1989 5.25 28.3897 5.32902 28.5303 5.46967C28.671 5.61032 28.75 5.80109 28.75 6ZM9 25.25H4.75V21C4.75 20.8011 4.67098 20.6103 4.53033 20.4697C4.38968 20.329 4.19891 20.25 4 20.25C3.80109 20.25 3.61032 20.329 3.46967 20.4697C3.32902 20.6103 3.25 20.8011 3.25 21V26C3.25 26.1989 3.32902 26.3897 3.46967 26.5303C3.61032 26.671 3.80109 26.75 4 26.75H9C9.19891 26.75 9.38968 26.671 9.53033 26.5303C9.67098 26.3897 9.75 26.1989 9.75 26C9.75 25.8011 9.67098 25.6103 9.53033 25.4697C9.38968 25.329 9.19891 25.25 9 25.25ZM28 20.25C27.8011 20.25 27.6103 20.329 27.4697 20.4697C27.329 20.6103 27.25 20.8011 27.25 21V25.25H23C22.8011 25.25 22.6103 25.329 22.4697 25.4697C22.329 25.6103 22.25 25.8011 22.25 26C22.25 26.1989 22.329 26.3897 22.4697 26.5303C22.6103 26.671 22.8011 26.75 23 26.75H28C28.1989 26.75 28.3897 26.671 28.5303 26.5303C28.671 26.3897 28.75 26.1989 28.75 26V21C28.75 20.8011 28.671 20.6103 28.5303 20.4697C28.3897 20.329 28.1989 20.25 28 20.25ZM4 11.75C4.19891 11.75 4.38968 11.671 4.53033 11.5303C4.67098 11.3897 4.75 11.1989 4.75 11V6.75H9C9.19891 6.75 9.38968 6.67098 9.53033 6.53033C9.67098 6.38968 9.75 6.19891 9.75 6C9.75 5.80109 9.67098 5.61032 9.53033 5.46967C9.38968 5.32902 9.19891 5.25 9 5.25H4C3.80109 5.25 3.61032 5.32902 3.46967 5.46967C3.32902 5.61032 3.25 5.80109 3.25 6V11C3.25 11.1989 3.32902 11.3897 3.46967 11.5303C3.61032 11.671 3.80109 11.75 4 11.75ZM10 10.25C9.80109 10.25 9.61032 10.329 9.46967 10.4697C9.32902 10.6103 9.25 10.8011 9.25 11V21C9.25 21.1989 9.32902 21.3897 9.46967 21.5303C9.61032 21.671 9.80109 21.75 10 21.75C10.1989 21.75 10.3897 21.671 10.5303 21.5303C10.671 21.3897 10.75 21.1989 10.75 21V11C10.75 10.8011 10.671 10.6103 10.5303 10.4697C10.3897 10.329 10.1989 10.25 10 10.25ZM22.75 21V11C22.75 10.8011 22.671 10.6103 22.5303 10.4697C22.3897 10.329 22.1989 10.25 22 10.25C21.8011 10.25 21.6103 10.329 21.4697 10.4697C21.329 10.6103 21.25 10.8011 21.25 11V21C21.25 21.1989 21.329 21.3897 21.4697 21.5303C21.6103 21.671 21.8011 21.75 22 21.75C22.1989 21.75 22.3897 21.671 22.5303 21.5303C22.671 21.3897 22.75 21.1989 22.75 21ZM18 10.25C17.8011 10.25 17.6103 10.329 17.4697 10.4697C17.329 10.6103 17.25 10.8011 17.25 11V21C17.25 21.1989 17.329 21.3897 17.4697 21.5303C17.6103 21.671 17.8011 21.75 18 21.75C18.1989 21.75 18.3897 21.671 18.5303 21.5303C18.671 21.3897 18.75 21.1989 18.75 21V11C18.75 10.8011 18.671 10.6103 18.5303 10.4697C18.3897 10.329 18.1989 10.25 18 10.25ZM14 10.25C13.8011 10.25 13.6103 10.329 13.4697 10.4697C13.329 10.6103 13.25 10.8011 13.25 11V21C13.25 21.1989 13.329 21.3897 13.4697 21.5303C13.6103 21.671 13.8011 21.75 14 21.75C14.1989 21.75 14.3897 21.671 14.5303 21.5303C14.671 21.3897 14.75 21.1989 14.75 21V11C14.75 10.8011 14.671 10.6103 14.5303 10.4697C14.3897 10.329 14.1989 10.25 14 10.25Z" fill="#212121"/>
</svg>
