<svg width="32" height="32" viewBox="0 0 32 32" fill="none" xmlns="http://www.w3.org/2000/svg">
<path d="M4.33398 8.29926V12.5H6.66732V8.99996H10.1673V6.66663H5.96732C5.53438 6.66706 5.1193 6.83918 4.8131 7.14525C4.50691 7.45131 4.3346 7.86633 4.33398 8.29926Z" fill="#000000"/>
<path d="M27.6662 8.29926C27.6656 7.86633 27.4933 7.45131 27.1871 7.14525C26.8809 6.83918 26.4658 6.66706 26.0328 6.66663H21.8328V8.99996H25.3328V12.5H27.6662V8.29926Z" fill="#000000"/>
<path d="M25.3328 19.5H27.6662V23.7C27.6657 24.133 27.4934 24.5482 27.1872 24.8544C26.881 25.1606 26.4659 25.3328 26.0328 25.3333H21.8328V23H25.3328V19.5Z" fill="#000000"/>
<path d="M4.33398 23.7C4.33448 24.133 4.50672 24.5482 4.81292 24.8544C5.11912 25.1606 5.53428 25.3328 5.96732 25.3333H10.1673V23H6.66732V19.5H4.33398V23.7Z" fill="#000000"/>
<path d="M8.99723 11.3299H11.3306V20.6632H8.99723V11.3299Z" fill="#000000"/>
<path d="M17.165 11.3299H14.8317V20.6632H17.165V11.3299Z" fill="#000000"/>
<path d="M20.6639 11.3299H22.9972V20.6632H20.6639V11.3299Z" fill="#000000"/>
<path d="M13.6646 11.3303H12.4979V20.6636H13.6646V11.3303Z" fill="#000000"/>
<path d="M18.3328 11.3303H19.4995V20.6636H18.3328V11.3303Z" fill="#000000"/>
</svg>
