<svg width="539" height="423" viewBox="0 0 539 423" fill="none" xmlns="http://www.w3.org/2000/svg">
<path d="M69 129.603L69 78.0118L318.442 55L469 78.0118L463.052 112.53L450.041 129.603L442.234 131.91L408.405 258.395L209.892 369L125.877 267.674L98.5 146L69 129.603Z" fill="#FED42B"/>
<path fill-rule="evenodd" clip-rule="evenodd" d="M318.548 51.4755L473.055 75.091L466.356 113.969L452.131 132.635L445.108 134.71L411.403 260.731L209.055 373.473L122.647 269.261L95.4295 148.298L65.5 131.662L65.5 74.8199L318.548 51.4755ZM103.685 153.099L174.408 194.587L206.392 210.187L206.392 359.295L129.108 266.086L103.685 153.099ZM213.392 363.043L405.407 256.059L437.184 137.247L213.392 210.537L213.392 363.043ZM210.151 204.232L441.193 128.568L447.951 126.571L459.749 111.09L464.706 82.322L179.563 132.54L179.563 189.313L210.151 204.232ZM172.563 185.389L172.563 131.801L72.5 83.5836L72.5 127.544L100.236 142.961L172.563 185.389ZM81.8892 80.3376L120.891 99.1318L314.942 74.9214L314.942 58.8378L81.8892 80.3376ZM321.942 59.0756L321.942 75.0521L395.381 87.4235L447.434 78.2562L321.942 59.0756ZM374.78 91.0517L318.367 81.5484L132.52 104.735L176.567 125.96L374.78 91.0517Z" fill="#212121"/>
<path d="M117.014 99.2212L267.916 83.678L262.902 35L112 50.5432L117.014 99.2212Z" fill="#BA9C80"/>
<path fill-rule="evenodd" clip-rule="evenodd" d="M115.406 101.198C115.931 101.624 116.603 101.825 117.275 101.756L268.177 86.2126C269.577 86.0684 270.594 84.8168 270.45 83.417L265.436 34.739C265.292 33.3392 264.04 32.3214 262.641 32.4656L111.739 48.0087C110.339 48.1529 109.321 49.4045 109.466 50.8043L114.479 99.4823C114.549 100.155 114.882 100.772 115.406 101.198ZM119.287 96.4257L114.796 52.8167L260.628 37.7957L265.12 81.4046L119.287 96.4257Z" fill="#212121"/>
<path d="M140.5 111.5L177 129.5L272 113.57L267.916 83.6782L117.014 99.2214L140.5 111.5Z" fill="#BA9C80"/>
<path fill-rule="evenodd" clip-rule="evenodd" d="M175.873 131.785C176.352 132.022 176.894 132.101 177.421 132.013L272.421 116.083C273.779 115.855 274.711 114.589 274.524 113.225L270.44 83.3332C270.254 81.9716 269.022 81.0028 267.655 81.1436L116.753 96.6868C115.635 96.802 114.724 97.6369 114.512 98.7413C114.3 99.8457 114.837 100.958 115.834 101.479L139.319 113.758C139.337 113.767 139.355 113.776 139.373 113.785L175.873 131.785ZM177.389 126.851L141.654 109.228L125.701 100.888L265.725 86.4652L269.141 111.466L177.389 126.851Z" fill="#212121"/>
<path d="M179.225 129.5L215.733 123.5L205.705 40.8915L169.197 44.6519L179.225 129.5Z" fill="#FED42B"/>
<path fill-rule="evenodd" clip-rule="evenodd" d="M177.692 131.536C178.248 131.954 178.951 132.127 179.638 132.014L216.146 126.014C217.493 125.793 218.427 124.549 218.262 123.193L208.235 40.5844C208.067 39.2053 206.826 38.2145 205.444 38.3569L168.936 42.1173C168.257 42.1872 167.634 42.5265 167.208 43.0591C166.781 43.5918 166.586 44.2732 166.666 44.9509L176.694 129.799C176.776 130.49 177.137 131.117 177.692 131.536ZM181.442 126.553L172.031 46.9214L203.477 43.6823L212.909 121.382L181.442 126.553Z" fill="#212121"/>
<path d="M268.195 102.285L374.477 95.5002L374.672 68.6055L268.391 68.0003L268.195 102.285Z" fill="#BA9C80"/>
<path fill-rule="evenodd" clip-rule="evenodd" d="M266.447 104.138C266.961 104.623 267.653 104.872 268.358 104.827L374.639 98.0431C375.973 97.9579 377.015 96.8558 377.025 95.5188L377.22 68.624C377.225 67.9476 376.96 67.297 376.485 66.8156C376.01 66.3342 375.363 66.0615 374.686 66.0576L268.405 65.4524C266.998 65.4444 265.851 66.5787 265.843 67.9858L265.648 102.27C265.644 102.977 265.933 103.653 266.447 104.138ZM270.759 99.5678L270.924 70.5627L372.106 71.1389L371.946 93.1087L270.759 99.5678Z" fill="#212121"/>
<path d="M268.196 114.304L374.282 95.0134L374.477 95L268.196 102.285L268.196 114.304Z" fill="#BA9C80"/>
<path fill-rule="evenodd" clip-rule="evenodd" d="M266.563 116.26C267.143 116.744 267.908 116.946 268.652 116.811L374.598 97.5457L374.652 97.5421C376.056 97.4458 377.116 96.2298 377.019 94.8259C376.923 93.422 375.707 92.3619 374.303 92.4581L374.108 92.4715C374.107 92.4716 374.106 92.4716 374.105 92.4717L268.022 99.7426C266.686 99.8342 265.648 100.945 265.648 102.284L265.648 114.304C265.648 115.059 265.983 115.776 266.563 116.26ZM328.883 100.679L270.744 104.664L270.744 111.251L328.883 100.679Z" fill="#212121"/>
<path d="M308.284 106.5L333.998 102.5L334.388 68.3761L308.675 68.2297L308.284 106.5Z" fill="#FED42B"/>
<path fill-rule="evenodd" clip-rule="evenodd" d="M306.617 108.427C307.183 108.917 307.936 109.133 308.676 109.018L334.389 105.018C335.619 104.826 336.531 103.774 336.545 102.529L336.936 68.4053C336.943 67.727 336.68 67.0737 336.205 66.5899C335.729 66.1062 335.081 65.8321 334.402 65.8282L308.689 65.6818C307.287 65.6738 306.141 66.8011 306.127 68.2037L305.737 106.474C305.729 107.223 306.051 107.937 306.617 108.427ZM310.863 103.52L311.197 70.792L331.811 70.9094L331.474 100.314L310.863 103.52Z" fill="#212121"/>
</svg>
