<svg width="635" height="276" viewBox="0 0 635 276" fill="none" xmlns="http://www.w3.org/2000/svg">
<g clip-path="url(#clip0_125_8321)">
<path d="M36.4468 96.9049L583.212 16.5088L605.426 166.663L58.6605 247.059L36.4468 96.9049Z" fill="#E1C9ED" stroke="#212121" stroke-width="5.74275" stroke-linejoin="round"/>
<path d="M284.744 38.9946H24.8355C16.952 38.9946 10.6951 46.8456 11.446 55.6779L27.4634 233.586C28.0891 240.876 33.4699 246.344 39.977 246.344H299.885C307.769 246.344 314.025 238.493 313.275 229.661L297.257 51.7524C296.506 44.322 291.251 38.9946 284.744 38.9946Z" fill="#FFECCC" stroke="#212121" stroke-width="5.74275" stroke-miterlimit="10"/>
<path d="M122.145 168.897L108.613 172.645L111.746 178.016L120.265 177.641L124.525 175.767L122.145 168.897Z" fill="#FED5BD"/>
<path d="M294.646 38.9922H33.6599C25.7436 38.9922 19.4608 46.6568 20.2148 55.4363L36.2987 230.052C36.9269 237.159 42.3301 242.594 48.8642 242.594H309.851C317.767 242.594 324.05 234.929 323.296 226.15L307.212 51.5344C306.458 44.2878 301.18 38.9922 294.646 38.9922Z" fill="#FFECCC" stroke="#212121" stroke-width="5.74275" stroke-miterlimit="10"/>
<path d="M33.2646 58.4907L49.5319 234.303L311.686 238.057L294.793 58.4907H33.2646Z" fill="#FED42B" stroke="#212121" stroke-width="5.74275" stroke-linecap="round" stroke-linejoin="round"/>
<path d="M409.558 223.232H50.0983C42.8315 223.232 36.6922 229.103 36.4416 236.348C36.1911 243.593 41.8291 249.463 49.096 249.463H408.556C415.822 249.463 421.962 243.593 422.212 236.348C422.463 229.103 416.825 223.232 409.558 223.232Z" fill="#FFECCC" stroke="#212121" stroke-width="5.74275" stroke-miterlimit="10"/>
<path d="M409.555 223.232H348.038H328.743H203.452C196.185 223.232 190.046 229.103 189.795 236.348C189.545 243.593 195.183 249.463 202.45 249.463H327.74H347.161H408.678C415.945 249.463 422.084 243.593 422.335 236.348C422.46 229.103 416.822 223.232 409.555 223.232Z" fill="#FFECCC" stroke="#212121" stroke-width="5.74275" stroke-miterlimit="10"/>
<path d="M60.2475 236.348C60.3728 233.226 57.8669 230.728 54.86 230.728C51.7277 230.728 49.0966 233.226 48.9713 236.348C48.846 239.471 51.3518 241.969 54.3588 241.969C57.4911 241.969 60.1222 239.471 60.2475 236.348Z" fill="#FFECCC" stroke="#212121" stroke-width="5.74275" stroke-miterlimit="10"/>
<path d="M87.56 236.348C87.6853 233.226 85.1794 230.728 82.1725 230.728C79.0402 230.728 76.4091 233.226 76.2838 236.348C76.1585 239.471 78.6643 241.969 81.6713 241.969C84.8036 241.969 87.4347 239.471 87.56 236.348Z" fill="#FFECCC" stroke="#212121" stroke-width="5.74275" stroke-miterlimit="10"/>
<path d="M344.537 223.232H321.86H314.718H268.486C265.855 223.232 263.599 225.356 263.474 228.104C263.349 230.852 265.479 232.975 268.11 232.975H314.342H321.484H344.161C346.792 232.975 349.048 230.852 349.173 228.104C349.298 225.356 347.294 223.232 344.537 223.232Z" fill="#FFECCC" stroke="#212121" stroke-width="5.74275" stroke-miterlimit="10"/>
<path d="M160.984 108.817C161.235 110.816 162.989 112.315 165.119 112.315H275.751C278.382 112.315 280.387 110.067 280.136 107.693L277.004 83.4609C276.753 81.4624 274.999 79.9634 272.869 79.9634H162.237C159.606 79.9634 157.602 82.2118 157.852 84.5851L160.984 108.817Z" fill="#FFECCC" stroke="#212121" stroke-width="5.74275" stroke-miterlimit="10"/>
<path d="M174.893 91.0298H217.617" stroke="#212121" stroke-width="5.74275" stroke-miterlimit="10" stroke-linecap="round" stroke-linejoin="round"/>
<path d="M175.647 100.198H197.573" stroke="#212121" stroke-width="5.74275" stroke-miterlimit="10" stroke-linecap="round" stroke-linejoin="round"/>
<path d="M251.816 96.202L256.828 100.449L262.09 91.9551" fill="#FFECCC"/>
<path d="M251.816 96.202L256.828 100.449L262.09 91.9551" stroke="#212121" stroke-width="5.74275" stroke-linecap="round" stroke-linejoin="round"/>
<path d="M166.492 149.288C166.743 151.286 168.497 152.785 170.627 152.785H281.259C283.89 152.785 285.895 150.537 285.644 148.163L282.512 123.931C282.261 121.933 280.507 120.434 278.377 120.434H167.745C165.114 120.434 163.109 122.682 163.36 125.055L166.492 149.288Z" fill="#FFECCC" stroke="#212121" stroke-width="5.74275" stroke-miterlimit="10"/>
<path d="M183.284 131.5H226.008" stroke="#212121" stroke-width="5.74275" stroke-miterlimit="10" stroke-linecap="round" stroke-linejoin="round"/>
<path d="M184.03 140.668H205.956" stroke="#212121" stroke-width="5.74275" stroke-miterlimit="10" stroke-linecap="round" stroke-linejoin="round"/>
<path d="M256.956 136.672L261.968 140.919L267.355 132.3" fill="#FFECCC"/>
<path d="M256.956 136.672L261.968 140.919L267.355 132.3" stroke="#212121" stroke-width="5.74275" stroke-linecap="round" stroke-linejoin="round"/>
<path d="M172.006 189.634C172.257 191.633 174.011 193.132 176.141 193.132H286.772C289.404 193.132 291.408 190.883 291.158 188.51L288.025 164.278C287.775 162.279 286.021 160.78 283.891 160.78H173.259C170.628 160.78 168.623 163.029 168.874 165.402L172.006 189.634Z" fill="#FFECCC" stroke="#212121" stroke-width="5.74275" stroke-miterlimit="10"/>
<path d="M187.54 171.97H230.264" stroke="#212121" stroke-width="5.74275" stroke-miterlimit="10" stroke-linecap="round" stroke-linejoin="round"/>
<path d="M188.295 181.013H210.221" stroke="#212121" stroke-width="5.74275" stroke-miterlimit="10" stroke-linecap="round" stroke-linejoin="round"/>
<path d="M262.093 177.017L267.23 181.264L272.492 172.77" fill="#FFECCC"/>
<path d="M262.093 177.017L267.23 181.264L272.492 172.77" stroke="#212121" stroke-width="5.74275" stroke-linecap="round" stroke-linejoin="round"/>
<path d="M141.434 120.933C139.179 99.3238 119.759 81.8364 98.0836 81.8364C76.4083 81.8364 60.6216 99.3238 63.0022 120.933C65.3827 142.542 84.6775 160.03 106.353 160.03C128.028 160.03 143.689 142.542 141.434 120.933Z" fill="#68BB7C" stroke="#212121" stroke-width="5.74275" stroke-linejoin="round"/>
<path d="M462.581 57.3828L607.613 101.864L621.962 55.0792L476.93 10.5982L462.581 57.3828Z" fill="#BA9C80" stroke="#212121" stroke-width="5.09587" stroke-linejoin="round"/>
<path d="M448.232 104.167L593.265 148.648L607.613 101.864L462.581 57.3829L448.232 104.167Z" fill="#BA9C80" stroke="#212121" stroke-width="5.09587" stroke-linejoin="round"/>
<path d="M419.535 197.737L564.567 242.218L593.265 148.649L448.233 104.168L419.535 197.737Z" fill="#BA9C80" stroke="#212121" stroke-width="5.09587" stroke-linejoin="round"/>
<path d="M474.508 214.597L509.596 225.358L538.294 131.789L503.205 121.027L474.508 214.597Z" fill="#FED42B" stroke="#212121" stroke-width="5.09587" stroke-linejoin="round"/>
<path d="M503.204 121.027L538.293 131.789L566.99 38.2196L531.902 27.4581L503.204 121.027Z" fill="#FED42B" stroke="#212121" stroke-width="5.09587" stroke-linejoin="round"/>
<rect x="459.96" y="138.946" width="89.3073" height="72.1799" transform="rotate(-2.44939 459.96 138.946)" fill="#68BB7C" stroke="#212121" stroke-width="5.09587" stroke-linecap="round" stroke-linejoin="round"/>
<path d="M495.79 179.29C502.244 184.991 511.1 184.612 517.044 178.381" stroke="#212121" stroke-width="5.09587" stroke-linecap="round" stroke-linejoin="round"/>
<ellipse cx="489.812" cy="165.175" rx="3.62468" ry="3.62468" transform="rotate(-2.44939 489.812 165.175)" fill="#212121"/>
<ellipse cx="506.097" cy="171.069" rx="3.62468" ry="3.62468" transform="rotate(-2.44939 506.097 171.069)" fill="#212121"/>
<ellipse cx="522.112" cy="163.793" rx="3.62468" ry="3.62468" transform="rotate(-2.44939 522.112 163.793)" fill="#212121"/>
<path d="M346.048 110.708C346.048 110.708 371.482 122.449 372.734 123.199C373.987 123.948 363.087 227.498 363.087 227.498L354.066 230.621L332.892 206.139L307.708 191.899L296.558 166.917L298.437 152.303L346.048 110.708Z" fill="#FED5BD"/>
<path d="M353.441 100.341C356.699 96.719 358.077 91.7225 357.451 86.976C356.95 83.1038 356.073 78.3573 355.196 74.735C351.437 60.4953 353.066 45.0065 359.706 31.891C361.46 28.2687 363.715 24.7712 367.474 23.1474C369.729 22.1481 372.486 22.0232 374.741 23.2723C379.001 25.6456 379.001 31.1416 378.876 35.6383C378.249 50.5025 378.876 65.7415 383.762 79.7313C387.019 89.3494 392.282 98.3428 395.539 107.961C395.539 108.086 395.665 108.211 395.665 108.336C399.298 118.828 400.801 129.82 400.426 140.937C400.175 148.556 400.676 158.549 404.184 165.169C404.685 166.169 405.688 167.043 406.565 167.917C422.433 183.516 444.036 203.861 467.681 223.003C467.681 223.003 424.439 234.244 388.528 272.549C375.067 255.478 361.015 235.759 352.69 225.75C352.69 225.75 345.548 218.381 337.905 216.007C330.263 213.634 322.244 211.261 314.852 208.888L313.724 208.638C306.583 206.764 299.817 203.891 293.552 200.019C289.919 197.771 286.912 194.023 285.283 189.527C284.907 188.527 284.531 187.528 284.281 186.529C281.775 179.284 290.796 160.797 292.801 158.674C295.933 155.301 300.443 153.553 305.079 153.927L340.035 157.05C342.165 156.925 344.17 158.174 345.423 160.173C346.801 162.296 347.052 164.919 346.175 167.293C345.172 170.291 343.293 172.789 340.912 174.412C339.659 175.287 338.407 175.786 336.903 176.161C332.017 177.285 321.743 179.659 308.838 177.41" fill="#FED5BD"/>
<path d="M353.441 100.341C356.699 96.719 358.077 91.7225 357.451 86.976C356.95 83.1038 356.073 78.3573 355.196 74.735C351.437 60.4953 353.066 45.0065 359.706 31.891C361.46 28.2687 363.715 24.7712 367.474 23.1474C369.729 22.1481 372.486 22.0232 374.741 23.2723C379.001 25.6456 379.001 31.1416 378.876 35.6383C378.249 50.5025 378.876 65.7415 383.762 79.7313C387.019 89.3494 392.282 98.3428 395.539 107.961C395.539 108.086 395.665 108.211 395.665 108.336C399.298 118.828 400.801 129.82 400.426 140.937C400.175 148.556 400.676 158.549 404.184 165.169C404.685 166.169 405.688 167.043 406.565 167.917C422.433 183.516 444.036 203.861 467.681 223.003C467.681 223.003 424.439 234.244 388.528 272.549C375.067 255.478 361.015 235.759 352.69 225.75C352.69 225.75 345.548 218.381 337.905 216.007C330.263 213.634 322.244 211.261 314.852 208.888L313.724 208.638C306.583 206.764 299.817 203.891 293.552 200.019C289.919 197.771 286.912 194.023 285.283 189.527C284.907 188.527 284.531 187.528 284.281 186.529C281.775 179.284 290.796 160.797 292.801 158.674C295.933 155.301 300.443 153.553 305.079 153.927L340.035 157.05C342.165 156.925 344.17 158.174 345.423 160.173C346.801 162.296 347.052 164.919 346.175 167.293C345.172 170.291 343.293 172.789 340.912 174.412C339.659 175.287 338.407 175.787 336.903 176.161C332.017 177.285 321.743 179.659 308.838 177.41" stroke="#212121" stroke-width="5.74275" stroke-miterlimit="10" stroke-linecap="round" stroke-linejoin="round"/>
<path d="M299.944 155.176L287.54 147.432C282.654 144.434 278.895 139.563 276.64 133.567C276.139 132.318 275.763 130.944 275.262 129.695C272.631 122.075 277.642 100.716 283.907 90.2235C285.912 86.8509 289.796 84.9772 293.68 85.352L348.682 90.848C351.439 90.7231 354.07 92.2219 355.699 94.9699C357.453 97.7179 357.829 101.215 356.701 104.213C355.323 108.21 352.942 111.458 349.81 113.581C348.181 114.706 346.427 115.455 344.548 115.83C338.158 117.329 317.61 121.825 303.703 118.078" fill="#FED5BD"/>
<path d="M299.944 155.176L287.54 147.432C282.654 144.434 278.895 139.563 276.64 133.567C276.139 132.318 275.763 130.944 275.262 129.695C272.631 122.075 277.642 100.716 283.907 90.2235C285.912 86.8509 289.796 84.9772 293.68 85.352L348.682 90.848C351.439 90.7231 354.07 92.2219 355.699 94.9699C357.453 97.7179 357.829 101.215 356.701 104.213C355.323 108.21 352.942 111.458 349.81 113.581C348.181 114.706 346.427 115.455 344.548 115.83C338.158 117.329 317.61 121.825 303.703 118.078" stroke="#212121" stroke-width="5.74275" stroke-miterlimit="10" stroke-linecap="round" stroke-linejoin="round"/>
<path d="M297.815 177.66L285.412 169.915C280.525 166.917 276.766 162.046 274.511 156.05C274.01 154.801 273.634 153.427 273.133 152.178C270.502 144.559 275.514 123.199 281.778 112.707C283.783 109.334 287.667 107.461 291.551 107.835L346.554 113.331C349.31 113.206 351.941 114.705 353.57 117.453C355.324 120.201 355.7 123.699 354.572 126.697C353.194 130.694 350.813 133.941 347.681 136.065C346.052 137.189 344.298 137.939 342.419 138.313C336.029 139.812 315.481 144.309 301.574 140.562" fill="#FED5BD"/>
<path d="M297.815 177.66L285.412 169.915C280.525 166.917 276.766 162.046 274.511 156.05C274.01 154.801 273.634 153.427 273.133 152.178C270.502 144.559 275.514 123.199 281.778 112.707C283.783 109.334 287.667 107.461 291.551 107.835L346.554 113.331C349.31 113.206 351.941 114.705 353.57 117.453C355.324 120.201 355.7 123.699 354.572 126.697C353.194 130.694 350.813 133.941 347.681 136.065C346.052 137.189 344.298 137.939 342.419 138.313C336.029 139.812 315.481 144.309 301.574 140.562" stroke="#212121" stroke-width="5.74275" stroke-miterlimit="10" stroke-linecap="round" stroke-linejoin="round"/>
<path d="M299.442 195.272L287.916 188.152C283.405 185.404 279.897 180.782 277.767 175.286C277.391 174.162 276.89 172.913 276.514 171.664C274.134 164.544 278.769 144.808 284.533 135.065C286.412 131.943 289.92 130.194 293.554 130.569L344.547 135.69C347.053 135.565 349.559 137.064 351.062 139.437C352.691 142.06 353.067 145.183 352.064 148.056C350.812 151.803 348.556 154.801 345.675 156.8C344.171 157.799 342.542 158.548 340.788 158.923C334.9 160.422 315.855 164.544 302.825 161.047" fill="#FED5BD"/>
<path d="M299.442 195.272L287.916 188.152C283.405 185.404 279.897 180.782 277.767 175.286C277.391 174.162 276.89 172.913 276.514 171.664C274.134 164.544 278.769 144.808 284.533 135.065C286.412 131.943 289.92 130.194 293.554 130.569L344.547 135.69C347.053 135.565 349.559 137.064 351.062 139.437C352.691 142.06 353.067 145.183 352.064 148.056C350.812 151.803 348.556 154.801 345.675 156.8C344.171 157.799 342.542 158.548 340.788 158.923C334.9 160.422 315.855 164.544 302.825 161.047" stroke="#212121" stroke-width="5.74275" stroke-miterlimit="10" stroke-linecap="round" stroke-linejoin="round"/>
<path d="M322.995 211.385C320.114 210.511 317.357 209.636 314.601 208.762L313.473 208.512C306.332 206.639 299.566 203.766 293.301 199.893C289.668 197.645 286.661 193.898 285.032 189.401C284.656 188.402 284.281 187.403 284.03 186.403C281.524 179.159 290.545 160.672 292.55 158.549C295.682 155.176 300.192 153.427 304.828 153.802L339.784 156.925C341.914 156.8 343.919 158.049 345.172 160.047C346.55 162.171 346.801 164.794 345.924 167.167C344.921 170.165 343.042 172.663 340.661 174.287C339.409 175.161 338.156 175.661 336.652 176.036C331.766 177.16 321.492 179.533 308.587 177.285" fill="#FED5BD"/>
<path d="M322.995 211.385C320.114 210.511 317.357 209.636 314.601 208.762L313.473 208.512C306.332 206.639 299.566 203.766 293.301 199.893C289.668 197.645 286.661 193.898 285.032 189.401C284.656 188.402 284.281 187.403 284.03 186.403C281.524 179.159 290.545 160.672 292.55 158.549C295.682 155.176 300.192 153.427 304.828 153.802L339.784 156.925C341.914 156.8 343.919 158.049 345.172 160.047C346.55 162.171 346.801 164.794 345.924 167.167C344.921 170.165 343.042 172.663 340.661 174.287C339.409 175.161 338.156 175.661 336.652 176.036C331.766 177.16 321.492 179.533 308.587 177.285" stroke="#212121" stroke-width="5.74275" stroke-miterlimit="10" stroke-linecap="round" stroke-linejoin="round"/>
</g>
<defs>
<clipPath id="clip0_125_8321">
<rect width="634.8" height="276" fill="white"/>
</clipPath>
</defs>
</svg>
