<svg width="38" height="38" viewBox="0 0 38 38" fill="none" xmlns="http://www.w3.org/2000/svg">
<path fill-rule="evenodd" clip-rule="evenodd" d="M31.121 9.98899C32.0599 8.69673 31.7734 6.88803 30.4811 5.94915L26.8119 3.28328C25.5196 2.3444 23.7109 2.63087 22.772 3.92313L8.65082 23.3593L6.36603 33.0127C6.27844 33.3828 6.34016 33.7725 6.53783 34.0974C6.95294 34.7797 7.84257 34.9963 8.52488 34.5812L16.9998 29.4252L31.121 9.98899ZM26.222 11.8114L28.7811 8.28899L25.1119 5.62313L22.5527 9.14549L26.222 11.8114ZM24.3607 14.3732L20.6914 11.7074L11.3317 24.59L9.97732 30.3121L15.0009 27.2559L24.3607 14.3732Z" fill="#000000"/>
</svg>
