<svg width="654" height="217" viewBox="0 0 654 217" fill="none" xmlns="http://www.w3.org/2000/svg">
<path d="M467.837 94.8975L563.618 120.562L571.897 89.6648L476.116 64.0004L467.837 94.8975Z" fill="#BA9C80" stroke="#212121" stroke-width="4" stroke-linejoin="round"/>
<path d="M459.558 125.794L555.339 151.458L563.617 120.561L467.837 94.8969L459.558 125.794Z" fill="#BA9C80" stroke="#212121" stroke-width="4" stroke-linejoin="round"/>
<path d="M443 187.589L538.781 213.253L555.339 151.459L459.558 125.795L443 187.589Z" fill="#BA9C80" stroke="#212121" stroke-width="4" stroke-linejoin="round"/>
<path d="M479.305 197.316L502.478 203.526L519.035 141.731L495.862 135.522L479.305 197.316Z" fill="#FED42B" stroke="#212121" stroke-width="4" stroke-linejoin="round"/>
<path d="M495.861 135.521L519.034 141.731L535.592 79.9364L512.419 73.7273L495.861 135.521Z" fill="#FED42B" stroke="#212121" stroke-width="4" stroke-linejoin="round"/>
<path d="M13.1729 101.559L129.606 66.923L118.433 29.364L2.00013 63.9996L13.1729 101.559Z" fill="#BA9C80" stroke="#212121" stroke-width="4" stroke-linejoin="round"/>
<path d="M24.3457 139.118L140.778 104.483L129.606 66.9236L13.173 101.559L24.3457 139.118Z" fill="#BA9C80" stroke="#212121" stroke-width="4" stroke-linejoin="round"/>
<path d="M46.6914 214.236L163.124 179.601L140.779 104.483L24.3459 139.118L46.6914 214.236Z" fill="#BA9C80" stroke="#212121" stroke-width="4" stroke-linejoin="round"/>
<path d="M90.8232 201.107L118.992 192.728L96.6469 117.61L68.4777 125.99L90.8232 201.107Z" fill="#FED42B" stroke="#212121" stroke-width="4" stroke-linejoin="round"/>
<path d="M68.4775 125.99L96.6467 117.611L74.3012 42.4928L46.132 50.8723L68.4775 125.99Z" fill="#FED42B" stroke="#212121" stroke-width="4" stroke-linejoin="round"/>
<path d="M96.2627 103.686H209.988V67H96.2627L96.2627 103.686Z" fill="#BA9C80" stroke="#212121" stroke-width="4" stroke-linejoin="round"/>
<path d="M96.2627 140.371H209.988V103.686H96.2627L96.2627 140.371Z" fill="#BA9C80" stroke="#212121" stroke-width="4" stroke-linejoin="round"/>
<path d="M96.2627 213.742H209.988V140.371H96.2627L96.2627 213.742Z" fill="#BA9C80" stroke="#212121" stroke-width="4" stroke-linejoin="round"/>
<path d="M139.368 213.742H166.882V140.371H139.368L139.368 213.742Z" fill="#FED42B" stroke="#212121" stroke-width="4" stroke-linejoin="round"/>
<path d="M139.368 140.371H166.882V67H139.368L139.368 140.371Z" fill="#FED42B" stroke="#212121" stroke-width="4" stroke-linejoin="round"/>
<path d="M538 103.686H651.725V67H538L538 103.686Z" fill="#BA9C80" stroke="#212121" stroke-width="4" stroke-linejoin="round"/>
<path d="M538 140.371H651.725V103.686H538L538 140.371Z" fill="#BA9C80" stroke="#212121" stroke-width="4" stroke-linejoin="round"/>
<path d="M538 213.742H651.725V140.371H538L538 213.742Z" fill="#BA9C80" stroke="#212121" stroke-width="4" stroke-linejoin="round"/>
<path d="M581.105 213.742H608.62V140.371H581.105L581.105 213.742Z" fill="#FED42B" stroke="#212121" stroke-width="4" stroke-linejoin="round"/>
<path d="M581.105 140.371H608.62V67H581.105L581.105 140.371Z" fill="#FED42B" stroke="#212121" stroke-width="4" stroke-linejoin="round"/>
<rect x="51" y="141" width="89.3073" height="72.1799" fill="#68BB7C" stroke="#212121" stroke-width="4" stroke-linecap="round" stroke-linejoin="round"/>
<path d="M106.346 187.317C100.141 181.346 91.2769 181.346 85.072 187.317" stroke="#212121" stroke-width="4" stroke-linecap="round" stroke-linejoin="round"/>
<ellipse cx="79.7038" cy="168.481" rx="3.62468" ry="3.62468" fill="#212121"/>
<ellipse cx="95.7214" cy="175.065" rx="3.62468" ry="3.62468" fill="#212121"/>
<ellipse cx="112.034" cy="168.481" rx="3.62468" ry="3.62468" fill="#212121"/>
<path d="M447.359 3.00195H187.451C179.567 3.00195 173.31 10.8529 174.061 19.6853L190.079 197.593C190.704 204.884 196.085 210.351 202.592 210.351H462.5C470.384 210.351 476.641 202.5 475.89 193.668L459.872 15.7597C459.122 8.32935 453.866 3.00195 447.359 3.00195Z" fill="#FFECCC" stroke="#212121" stroke-width="5" stroke-miterlimit="10"/>
<path d="M284.76 132.905L271.229 136.653L274.361 142.024L282.881 141.649L287.14 139.775L284.76 132.905Z" fill="#FED5BD"/>
<path d="M457.262 3H196.275C188.359 3 182.076 10.6646 182.83 19.4441L198.914 194.06C199.542 201.167 204.945 206.602 211.479 206.602H472.466C480.382 206.602 486.665 198.937 485.911 190.158L469.827 15.5422C469.073 8.29561 463.796 3 457.262 3Z" fill="#FFECCC" stroke="#212121" stroke-width="5" stroke-miterlimit="10"/>
<path d="M195.88 22.499L212.147 198.311L474.301 202.065L457.408 22.499H195.88Z" fill="#E1C9ED" stroke="#212121" stroke-width="5" stroke-linecap="round" stroke-linejoin="round"/>
<path d="M572.173 187.24H212.714C205.447 187.24 199.307 193.111 199.057 200.356C198.806 207.6 204.444 213.471 211.711 213.471H571.171C578.438 213.471 584.577 207.6 584.827 200.356C585.078 193.111 579.44 187.24 572.173 187.24Z" fill="#FFECCC" stroke="#212121" stroke-width="5" stroke-miterlimit="10"/>
<path d="M572.171 187.24H510.653H491.358H366.067C358.8 187.24 352.661 193.111 352.41 200.356C352.16 207.6 357.798 213.471 365.065 213.471H490.356H509.776H571.294C578.56 213.471 584.7 207.6 584.95 200.356C585.076 193.111 579.437 187.24 572.171 187.24Z" fill="#FFECCC" stroke="#212121" stroke-width="5" stroke-miterlimit="10"/>
<path d="M222.863 200.356C222.988 197.234 220.482 194.735 217.475 194.735C214.343 194.735 211.712 197.234 211.587 200.356C211.461 203.479 213.967 205.977 216.974 205.977C220.106 205.977 222.737 203.479 222.863 200.356Z" fill="#FFECCC" stroke="#212121" stroke-width="5" stroke-miterlimit="10"/>
<path d="M250.175 200.356C250.301 197.234 247.795 194.735 244.788 194.735C241.655 194.735 239.024 197.234 238.899 200.356C238.774 203.479 241.28 205.977 244.287 205.977C247.419 205.977 250.05 203.479 250.175 200.356Z" fill="#FFECCC" stroke="#212121" stroke-width="5" stroke-miterlimit="10"/>
<path d="M507.152 187.24H484.475H477.333H431.101C428.47 187.24 426.215 189.364 426.089 192.112C425.964 194.86 428.094 196.983 430.725 196.983H476.957H484.099H506.777C509.408 196.983 511.663 194.86 511.788 192.112C511.914 189.364 509.909 187.24 507.152 187.24Z" fill="#FFECCC" stroke="#212121" stroke-width="5" stroke-miterlimit="10"/>
<path d="M47 214.5H651.5" stroke="#212121" stroke-width="4" stroke-linecap="round"/>
</svg>
