<svg width="40" height="40" viewBox="0 0 40 40" fill="none" xmlns="http://www.w3.org/2000/svg">
<path fill-rule="evenodd" clip-rule="evenodd" d="M40 20C40 31.0457 31.0457 40 20 40C8.95431 40 0 31.0457 0 20C0 8.95431 8.95431 0 20 0C31.0457 0 40 8.95431 40 20ZM18 12C18 10.8954 18.8954 10 20 10C21.1046 10 22 10.8954 22 12V22C22 23.1046 21.1046 24 20 24C18.8954 24 18 23.1046 18 22V12ZM20 31C21.1046 31 22 30.1046 22 29C22 27.8954 21.1046 27 20 27C18.8954 27 18 27.8954 18 29C18 30.1046 18.8954 31 20 31Z" fill="#FF0000"/>
</svg>
