<svg width="40" height="40" viewBox="0 0 40 40" fill="none" xmlns="http://www.w3.org/2000/svg">
<path fill-rule="evenodd" clip-rule="evenodd" d="M0 20C0 8.95431 8.95431 0 20 0C31.0457 0 40 8.95431 40 20C40 31.0457 31.0457 40 20 40C8.95431 40 0 31.0457 0 20ZM22 28C22 29.1046 21.1046 30 20 30C18.8954 30 18 29.1046 18 28L18 18C18 16.8954 18.8954 16 20 16C21.1046 16 22 16.8954 22 18L22 28ZM20 9C18.8954 9 18 9.89543 18 11C18 12.1046 18.8954 13 20 13C21.1046 13 22 12.1046 22 11C22 9.89543 21.1046 9 20 9Z" fill="#0044EE"/>
</svg>
