<svg width="40" height="40" viewBox="0 0 40 40" fill="none" xmlns="http://www.w3.org/2000/svg">
<path d="M17.5 10.8333C17.5 9.45254 18.6193 8.33325 20 8.33325C21.3807 8.33325 22.5 9.45254 22.5 10.8333C22.5 12.214 21.3807 13.3333 20 13.3333C18.6193 13.3333 17.5 12.214 17.5 10.8333ZM17.5 19.9999C17.5 18.6192 18.6193 17.4999 20 17.4999C21.3807 17.4999 22.5 18.6192 22.5 19.9999C22.5 21.3806 21.3807 22.4999 20 22.4999C18.6193 22.4999 17.5 21.3806 17.5 19.9999ZM20 26.6666C18.6193 26.6666 17.5 27.7859 17.5 29.1666C17.5 30.5473 18.6193 31.6666 20 31.6666C21.3807 31.6666 22.5 30.5473 22.5 29.1666C22.5 27.7859 21.3807 26.6666 20 26.6666Z" fill="#212121"/>
</svg>
