<svg width="45" height="38" viewBox="0 0 45 38" fill="none" xmlns="http://www.w3.org/2000/svg">
<path fill-rule="evenodd" clip-rule="evenodd" d="M2.27055 30.1282C2.27055 31.6647 3.51612 32.9103 5.0526 32.9103L29.814 32.9103C30.8891 32.9103 31.8107 32.4495 32.425 31.5279L42.5615 19.0869L32.425 6.64595C31.8107 5.87799 30.8891 5.26362 29.814 5.26362L5.0526 5.26362C3.51612 5.26362 2.27055 6.50918 2.27055 8.04567C2.27055 15.4065 2.27055 22.7674 2.27055 30.1282Z" stroke="#212121" stroke-width="2.78206" stroke-linecap="square"/>
<path fill-rule="evenodd" clip-rule="evenodd" d="M15.2847 12.0129C14.7415 11.4696 13.8608 11.4696 13.3175 12.0129C12.7743 12.5561 12.7743 13.4369 13.3175 13.9801L17.6421 18.3047L13.3177 22.6292C12.7745 23.1724 12.7745 24.0531 13.3177 24.5964C13.8609 25.1396 14.7417 25.1396 15.2849 24.5964L19.6093 20.2719L23.9338 24.5964C24.477 25.1396 25.3578 25.1396 25.901 24.5964C26.4442 24.0531 26.4442 23.1724 25.901 22.6292L21.5766 18.3047L25.9012 13.9801C26.4444 13.4369 26.4444 12.5561 25.9012 12.0129C25.3579 11.4696 24.4772 11.4696 23.934 12.0129L19.6093 16.3375L15.2847 12.0129Z" fill="#212121"/>
</svg>
