<svg width="45" height="45" viewBox="0 0 45 45" fill="none" xmlns="http://www.w3.org/2000/svg">
<path d="M43.5406 31.4012C40.0784 39.2258 32.1914 44.6928 23.0148 44.6928C15.3103 44.6928 8.51382 40.8391 4.48272 34.9719L12.3184 24.7199L10.8623 35.2063L19.0945 37.9804L28.8774 22.1336C28.405 25.1317 27.6258 31.9196 34.3012 33.9178C37.5519 34.8908 40.6671 33.7341 43.5406 31.4012Z" fill="#212121"/>
<path d="M44.9998 18.2233C41.8423 22.9058 38.8108 26.1939 37.2056 25.7521C34.4035 24.9809 36.929 16.0063 38.5577 10.2185L38.583 10.1285L29.4742 7.08079L18.6465 24.72L20.1026 15.1773L11.9824 12.4032L1.01139 26.6854C0.750411 25.3299 0.613955 23.9308 0.614258 22.5C0.614258 10.2425 10.6425 0.307251 23.0148 0.307251C33.9082 0.307251 42.9876 8.01245 44.9998 18.2233Z" fill="#212121"/>
</svg>
