<svg width="168" height="168" viewBox="0 0 168 168" fill="none" xmlns="http://www.w3.org/2000/svg">
<path fill-rule="evenodd" clip-rule="evenodd" d="M0.66748 9.00081C0.66748 4.39844 4.39844 0.66748 9.00081 0.66748H42.3341C46.9365 0.66748 50.6675 4.39844 50.6675 9.00081V42.3341C50.6675 46.9365 46.9365 50.6675 42.3341 50.6675H9.00081C4.39844 50.6675 0.66748 46.9365 0.66748 42.3341V9.00081ZM17.3341 17.3341V34.0008H34.0008V17.3341H17.3341Z" fill="#212121"/>
<path fill-rule="evenodd" clip-rule="evenodd" d="M117.334 9.00081C117.334 4.39844 121.065 0.66748 125.667 0.66748H159.001C163.603 0.66748 167.334 4.39844 167.334 9.00081V42.3341C167.334 46.9365 163.603 50.6675 159.001 50.6675H125.667C121.065 50.6675 117.334 46.9365 117.334 42.3341V9.00081ZM134.001 17.3341V34.0008H150.667V17.3341H134.001Z" fill="#212121"/>
<path fill-rule="evenodd" clip-rule="evenodd" d="M9.00081 117.334C4.39844 117.334 0.66748 121.065 0.66748 125.667V159.001C0.66748 163.603 4.39844 167.334 9.00081 167.334H42.3341C46.9365 167.334 50.6675 163.603 50.6675 159.001V125.667C50.6675 121.065 46.9365 117.334 42.3341 117.334H9.00081ZM17.3341 150.667V134.001H34.0008V150.667H17.3341Z" fill="#212121"/>
<path d="M67.3341 0.66748H84.0008V17.3341H67.3341V0.66748Z" fill="#212121"/>
<path d="M84.0008 34.0008V17.3341H100.667V50.6675H84.0008V67.3341H67.3341V34.0008H84.0008Z" fill="#212121"/>
<path fill-rule="evenodd" clip-rule="evenodd" d="M67.3341 84.0008V67.3341H34.0008V84.0008H17.3341V67.3341H0.66748V84.0008H17.3341V100.667H50.6675V117.334H84.0008V134.001H67.3341V167.334H84.0008V150.667H117.334V167.334H134.001V150.667H167.334V134.001H134.001V117.334H150.667V100.667H167.334V84.0008H150.667V67.3341H117.334V50.6675H100.667V67.3341H84.0008V84.0008H67.3341ZM100.667 84.0008H84.0008V117.334H100.667V134.001H117.334V150.667H134.001V134.001H117.334V117.334H134.001V100.667H150.667V84.0008H134.001V100.667H117.334V117.334H100.667V84.0008ZM100.667 84.0008H117.334V67.3341H100.667V84.0008ZM67.3341 84.0008V100.667H50.6675V84.0008H67.3341Z" fill="#212121"/>
</svg>
