<svg width="20" height="20" viewBox="0 0 20 20" fill="none" xmlns="http://www.w3.org/2000/svg">
<path fill-rule="evenodd" clip-rule="evenodd" d="M8.88786 0.499999C8.88786 0.223857 9.11172 0 9.38786 0H10.6101C10.8862 0 11.1101 0.223858 11.1101 0.5V9.36554C11.1104 9.37332 11.1106 9.38115 11.1106 9.38902V10.6112C11.1106 10.8874 10.8868 11.1112 10.6106 11.1112H0.499511C0.223369 11.1112 -0.000488281 10.8874 -0.000488281 10.6112V9.38902C-0.000488281 9.11288 0.223369 8.88902 0.499512 8.88902H8.88786V0.499999ZM14.5445 0.111247C13.937 0.111247 13.4445 0.603732 13.4445 1.21125V5.45569C13.4445 6.0632 13.937 6.55569 14.5445 6.55569H18.7889C19.3965 6.55569 19.8889 6.06321 19.8889 5.45569V1.21125C19.8889 0.603735 19.3965 0.111247 18.7889 0.111247H14.5445ZM15.4445 4.55569V2.11125H17.8889V4.55569H15.4445ZM1.21117 13.4446C0.603653 13.4446 0.111165 13.9371 0.111165 14.5446V18.789C0.111165 19.3965 0.603651 19.889 1.21117 19.889H5.45561C6.06312 19.889 6.55561 19.3965 6.55561 18.789V14.5446C6.55561 13.9371 6.06312 13.4446 5.45561 13.4446H1.21117ZM2.11117 17.889V15.4446H4.55561V17.889H2.11117ZM0.111165 1.21125C0.111165 0.603732 0.603653 0.111247 1.21117 0.111247H5.45561C6.06312 0.111247 6.55561 0.603735 6.55561 1.21125V5.45569C6.55561 6.06321 6.06312 6.55569 5.45561 6.55569H1.21117C0.603651 6.55569 0.111165 6.0632 0.111165 5.45569V1.21125ZM2.11117 2.11125V4.55569H4.55561V2.11125H2.11117ZM9.38786 13.3333C9.11172 13.3333 8.88786 13.5572 8.88786 13.8333V19.5C8.88786 19.7761 9.11172 20 9.38786 20H10.6101C10.8862 20 11.1101 19.7761 11.1101 19.5V13.8333C11.1101 13.5572 10.8862 13.3333 10.6101 13.3333H9.38786ZM13.8328 8.88875C13.5567 8.88875 13.3328 9.11261 13.3328 9.38875V9.38902V10.6112V15.0554C13.3328 15.3316 13.5567 15.5554 13.8328 15.5554H15.0551C15.3312 15.5554 15.5551 15.3316 15.5551 15.0554V11.1112H19.4995C19.7757 11.1112 19.9995 10.8874 19.9995 10.6112V9.38902C19.9995 9.11288 19.7757 8.88902 19.4995 8.88902H15.0717L15.0551 8.88875H13.8328ZM17.7778 13.8333C17.7778 13.5572 18.0017 13.3333 18.2778 13.3333H19.5001C19.7762 13.3333 20.0001 13.5572 20.0001 13.8333V19.5C20.0001 19.7761 19.7762 20 19.5001 20H19.4995H18.2778H13.8328C13.5567 20 13.3328 19.7761 13.3328 19.5V18.2778C13.3328 18.0016 13.5567 17.7778 13.8328 17.7778H17.7778V13.8333Z" fill="#212121"/>
</svg>
