<svg width="32" height="31" viewBox="0 0 32 31" fill="none" xmlns="http://www.w3.org/2000/svg">
<path fill-rule="evenodd" clip-rule="evenodd" d="M26.2631 0.714517L31.2424 0.161255L30.6892 5.14061C30.1776 9.74454 28.1144 14.0373 24.8389 17.3128L21.4075 20.7616C22.6293 21.9833 22.8188 23.8975 21.8604 25.3351L18.9788 29.6575C18.2787 30.7076 16.7929 30.8548 15.9005 29.9623L13.9035 27.9654L14.4692 24.0056L7.39813 16.9345L3.43833 17.5002L1.44135 15.5032C0.548916 14.6108 0.696043 13.125 1.74617 12.4249L6.06858 9.54328C7.50617 8.58488 9.4204 8.77442 10.6421 9.99615L14.0909 6.56477C17.3664 3.28927 21.6591 1.22607 26.2631 0.714517ZM28.3038 4.87558L28.5258 2.87787L26.5281 3.09984C22.4658 3.5512 18.6781 5.37168 15.788 8.26182L12.3566 11.6932C11.4145 12.6353 9.88713 12.6353 8.94507 11.6932C8.5323 11.2804 7.88556 11.2164 7.39986 11.5402L3.48342 14.1512L4.28686 14.9546L8.24666 14.3889L17.0148 23.157L16.4491 27.1168L17.2525 27.9203L19.8635 24.0038C20.1873 23.5181 20.1233 22.8714 19.7105 22.4586C18.7684 21.5166 18.7684 19.9892 19.7105 19.0471L23.1419 15.6157C26.032 12.7256 27.8525 8.93787 28.3038 4.87558Z" fill="#000000"/>
<path d="M7.07116 19.8543L4.28971 27.1613L11.5969 24.3794L7.07116 19.8543Z" fill="#000000"/>
</svg>
