<svg width="40" height="40" viewBox="0 0 40 40" fill="none" xmlns="http://www.w3.org/2000/svg">
<path fill-rule="evenodd" clip-rule="evenodd" d="M40 20C40 31.0457 31.0457 40 20 40C8.9543 40 0 31.0457 0 20C0 8.9543 8.9543 0 20 0C31.0457 0 40 8.9543 40 20ZM27.1761 13.5935C27.8436 12.7134 29.0982 12.5411 29.9783 13.2086C30.8583 13.8761 31.0306 15.1307 30.3631 16.0107L20.7701 28.6585C20.6309 28.842 20.4661 28.9948 20.2846 29.1156C19.5529 29.6417 18.5305 29.6215 17.816 29.0088L11.5183 23.6085C10.6797 22.8895 10.5829 21.6269 11.3019 20.7884C12.0209 19.9499 13.2835 19.853 14.122 20.572L18.8246 24.6044L27.1761 13.5935Z" fill="#2AAD2E"/>
</svg>
