<svg width="84" height="80" viewBox="0 0 84 80" fill="none" xmlns="http://www.w3.org/2000/svg">
<path fill-rule="evenodd" clip-rule="evenodd" d="M7.32231 73.9978L42 8.28525L76.6777 73.9978H7.32231ZM38.4624 2.13313C39.9633 -0.711045 44.0367 -0.711041 45.5377 2.13313L83.5322 74.1309C84.938 76.7947 83.0066 79.9978 79.9946 79.9978H4.00546C0.993488 79.9978 -0.9379 76.7947 0.467841 74.1309L38.4624 2.13313ZM40.0057 30C38.9011 30 38.0057 30.8954 38.0057 32V50.5691H43.9997V32C43.9997 30.8954 43.1043 30 41.9997 30H40.0057ZM41.0027 66C43.2118 66 45.0027 64.1564 45.0027 61.8821C45.0027 59.6079 43.2118 57.7642 41.0027 57.7642C38.7935 57.7642 37.0027 59.6079 37.0027 61.8821C37.0027 64.1564 38.7935 66 41.0027 66Z" fill="#FFB026"/>
</svg>
