<svg width="92" height="88" viewBox="0 0 92 88" fill="none" xmlns="http://www.w3.org/2000/svg">
<path fill-rule="evenodd" clip-rule="evenodd" d="M11.3223 77.9978L46 12.2852L80.6777 77.9978H11.3223ZM42.4624 6.13313C43.9633 3.28896 48.0367 3.28896 49.5377 6.13313L87.5322 78.1309C88.938 80.7947 87.0066 83.9978 83.9946 83.9978H8.00546C4.99349 83.9978 3.0621 80.7947 4.46784 78.1309L42.4624 6.13313ZM44.0057 34C42.9011 34 42.0057 34.8954 42.0057 36V54.5691H47.9997V36C47.9997 34.8954 47.1043 34 45.9997 34H44.0057ZM45.0027 70C47.2118 70 49.0027 68.1564 49.0027 65.8821C49.0027 63.6079 47.2118 61.7642 45.0027 61.7642C42.7935 61.7642 41.0027 63.6079 41.0027 65.8821C41.0027 68.1564 42.7935 70 45.0027 70Z" fill="#FFB026"/>
</svg>
