<svg width="42" height="42" viewBox="0 0 42 42" fill="none" xmlns="http://www.w3.org/2000/svg">
<path fill-rule="evenodd" clip-rule="evenodd" d="M19.3767 2.06378L1.08039 38.2208C0.4072 39.5511 1.37395 41.1238 2.86492 41.1238H39.0219C40.5045 41.1238 41.4717 39.5672 40.8151 38.238L22.9544 2.08102C22.2245 0.603363 20.1208 0.593225 19.3767 2.06378ZM19.1208 16.612C19.1208 15.4348 20.0751 14.4806 21.2523 14.4806C22.4294 14.4806 23.3837 15.4348 23.3837 16.612V27.2693C23.3837 28.4465 22.4294 29.4008 21.2523 29.4008C20.0751 29.4008 19.1208 28.4465 19.1208 27.2693V16.612ZM21.2523 36.8609C22.4294 36.8609 23.3837 35.9066 23.3837 34.7294C23.3837 33.5522 22.4294 32.598 21.2523 32.598C20.0751 32.598 19.1208 33.5522 19.1208 34.7294C19.1208 35.9066 20.0751 36.8609 21.2523 36.8609Z" fill="#FFA200"/>
</svg>
