<svg width="92" height="32" viewBox="0 0 92 32" fill="none" xmlns="http://www.w3.org/2000/svg">
<path d="M11.0382 27.38C13.8882 27.38 15.8262 26.354 17.0042 25.556V21.87C15.4842 22.972 13.8122 23.808 11.3802 23.808C7.20016 23.808 5.22416 20.426 5.22416 13.814C5.22416 7.012 7.12416 3.782 11.6082 3.782C13.6982 3.782 15.6362 4.694 17.0042 5.568V1.882C15.7882 1.008 13.8122 0.209998 11.3802 0.209998C4.35016 0.209998 0.550156 5.378 0.550156 13.814C0.550156 22.478 4.50216 27.38 11.0382 27.38ZM31.0748 27H36.2048L28.9468 16.702L35.3308 7.886H30.7708L24.3868 16.702V7.886H19.8648V27H24.3868V17.614L31.0748 27ZM36.4171 23.086V27C36.4171 27 37.1391 27.38 38.2031 27.38C42.0791 27.38 43.0671 24.644 43.2951 18.298L43.5611 11.458H48.1591V27H52.6811V7.886H39.7231L39.3431 18.108C39.1911 22.174 38.9251 23.428 37.4431 23.428C36.7971 23.428 36.4171 23.086 36.4171 23.086ZM70.7798 13.966C70.7798 9.33 68.4238 7.582 63.6358 7.582C60.6338 7.582 58.2778 8.532 56.9098 9.33V13.092C58.1258 12.18 60.7858 11.192 63.1038 11.192C65.2698 11.192 66.2578 11.952 66.2578 14.004V15.068H65.5358C58.6198 15.068 55.5418 17.348 55.5418 21.224C55.5418 25.1 57.8978 27.266 61.3938 27.266C64.0538 27.266 65.1938 26.392 66.0678 25.48H66.2578C66.2958 25.974 66.4478 26.62 66.5998 27H71.0078C70.8558 25.442 70.7798 23.884 70.7798 22.326V13.966ZM66.2578 22.44C65.6878 23.276 64.6238 23.96 63.0278 23.96C61.1278 23.96 60.1778 22.82 60.1778 21.11C60.1778 18.868 61.7358 18.07 65.6118 18.07H66.2578V22.44ZM91.2116 23.428H89.1976V7.886H76.0116V9.52C76.0116 14.194 75.7076 20.236 74.1116 23.428H72.7056V31.37H76.8856V27H87.0316V31.37H91.2116V23.428ZM84.6756 23.428H78.2916C79.5456 20.54 79.8876 15.334 79.8876 12.028V11.458H84.6756V23.428Z" fill="#212121"/>
</svg>
