<svg width="46" height="45" viewBox="0 0 46 45" fill="none" xmlns="http://www.w3.org/2000/svg">
<path d="M45.034 22.5282C45.034 10.2759 35.0934 0.312317 22.8181 0.312317C10.5427 0.312317 0.648438 10.2297 0.648438 22.5282C0.648438 34.7573 10.5658 44.6978 22.8181 44.6978C35.0703 44.6978 45.034 34.7573 45.034 22.5282ZM22.8181 40.9297C12.7851 40.9297 4.69399 32.8155 4.69399 22.5051C4.69399 12.2178 12.7851 4.08046 22.8181 4.08046C32.9204 4.08046 40.9422 12.2409 40.9422 22.5051C40.9884 32.8386 32.9204 40.9297 22.8181 40.9297Z" fill="#212121"/>
<path d="M25.7337 13.4341H23.706C20.23 13.4341 18.4921 15.172 18.4921 17.779C18.4921 20.6757 19.6507 22.124 22.2577 23.862L24.2853 25.3103L18.4921 34.2899H13.8574L19.361 26.1793C16.1747 23.862 14.4368 21.8343 14.4368 18.0687C14.4368 13.4341 17.6231 10.2477 23.706 10.2477H29.789V34.2899H25.7337V13.4341Z" fill="#212121"/>
</svg>
