<svg width="38" height="38" viewBox="0 0 38 38" fill="none" xmlns="http://www.w3.org/2000/svg">
<path fill-rule="evenodd" clip-rule="evenodd" d="M33.5 33.25C33.5 19 30.0833 4.75 30.0833 4.75C28.3645 4.75 27.5494 5.18771 26.7764 5.60284C26.0791 5.97727 25.4161 6.33333 24.155 6.33333C22.8499 6.33333 22.0876 5.952 21.3112 5.56361C20.5056 5.1606 19.6848 4.75 18.2266 4.75C16.8196 4.75 16.1045 5.13233 15.3772 5.52123C14.6244 5.92376 13.8584 6.33333 12.2982 6.33333C10.7892 6.33333 10.1131 5.95014 9.42606 5.56078C8.71655 5.15868 7.99544 4.75 6.33333 4.75C6.33333 4.75 4.75 18.2083 4.75 33.25H33.5ZM18.2083 11.0833C20.3945 11.0833 22.1667 10.3744 22.1667 9.49996C22.1667 8.62551 20.3945 7.91663 18.2083 7.91663C16.0222 7.91663 14.25 8.62551 14.25 9.49996C14.25 10.3744 16.0222 11.0833 18.2083 11.0833Z" fill="white"/>
</svg>
