<svg width="72" height="72" viewBox="0 0 72 72" fill="none" xmlns="http://www.w3.org/2000/svg">
<path d="M33.5 26.8333C33.5 25.4525 34.6193 24.3333 36 24.3333C37.3807 24.3333 38.5 25.4525 38.5 26.8333C38.5 28.214 37.3807 29.3333 36 29.3333C34.6193 29.3333 33.5 28.214 33.5 26.8333ZM33.5 35.9999C33.5 34.6192 34.6193 33.4999 36 33.4999C37.3807 33.4999 38.5 34.6192 38.5 35.9999C38.5 37.3806 37.3807 38.4999 36 38.4999C34.6193 38.4999 33.5 37.3806 33.5 35.9999ZM36 42.6666C34.6193 42.6666 33.5 43.7859 33.5 45.1666C33.5 46.5473 34.6193 47.6666 36 47.6666C37.3807 47.6666 38.5 46.5473 38.5 45.1666C38.5 43.7859 37.3807 42.6666 36 42.6666Z" fill="#000000"/>
</svg>
